<svg width="20" height="20" viewBox="0 0 20 20" fill="none" xmlns="http://www.w3.org/2000/svg">
<rect width="20" height="20" rx="2.58065" fill="#0F0773" fill-opacity="0.1"/>
<path d="M16.2687 12.6277C15.8368 13.6495 15.1612 14.5499 14.301 15.2501C13.4409 15.9504 12.4223 16.4292 11.3344 16.6448C10.2465 16.8603 9.12239 16.806 8.06032 16.4865C6.99826 16.1671 6.03059 15.5923 5.24192 14.8123C4.45325 14.0324 3.86758 13.071 3.53614 12.0124C3.20469 10.9537 3.13754 9.82993 3.34057 8.7393C3.5436 7.64868 4.01063 6.6244 4.70081 5.75604C5.391 4.88767 6.28333 4.20165 7.2998 3.75794M16.1261 9.9858C16.5009 9.9858 16.8085 9.68086 16.7711 9.308C16.6146 7.74878 15.9239 6.29167 14.816 5.18371C13.7081 4.07575 12.2513 3.38511 10.6925 3.22888C10.3191 3.19152 10.0149 3.49918 10.0149 3.87408V9.30732C10.0149 9.48745 10.0864 9.66019 10.2138 9.78756C10.3411 9.91493 10.5138 9.98648 10.6939 9.98648L16.1261 9.9858Z" stroke="#0F0773" stroke-width="1.29032" stroke-linecap="round" stroke-linejoin="round"/>
</svg>
